<svg width="22" height="22" viewBox="0 0 22 22" fill="none" xmlns="http://www.w3.org/2000/svg">
<path fill-rule="evenodd" clip-rule="evenodd" d="M16.5426 14.5202C16.564 14.5391 16.5848 14.5587 16.6052 14.5791L20.8607 18.8346C21.414 19.3878 21.406 20.2768 20.843 20.82C20.28 21.3633 19.3751 21.3553 18.8218 20.802L14.5663 16.5465C14.5591 16.5393 14.5519 16.532 14.5449 16.5246C13.0316 17.6338 11.1645 18.2889 9.1444 18.2889C4.09406 18.2889 -4.74276e-05 14.1948 -4.74276e-05 9.14442C-4.74276e-05 4.09408 4.09406 -2.55618e-05 9.1444 -2.55618e-05C14.1947 -2.55618e-05 18.2888 4.09408 18.2888 9.14442C18.2888 11.1535 17.6409 13.0113 16.5426 14.5202ZM9.1444 2.39998C5.41954 2.39998 2.39995 5.41957 2.39995 9.14442C2.39995 12.8693 5.41954 15.8889 9.1444 15.8889C12.8692 15.8889 15.8888 12.8693 15.8888 9.14442C15.8888 5.41957 12.8692 2.39998 9.1444 2.39998Z" fill="#6B6B6B"/>
</svg>
